<svg xmlns="http://www.w3.org/2000/svg" xmlns:xlink="http://www.w3.org/1999/xlink" version="1.1" x="0px" y="0px" viewBox="0 0 100 125" enable-background="new 0 0 100 100" xml:space="preserve"><g><path d="M50,5C25.2,5,5,25.1,5,50c0,23,17.2,41.9,39.4,44.7V31.2h11.2v63.5C77.8,91.9,95,73,95,50C95,25.1,74.8,5,50,5z M33.1,91.7   c-4-1.7-7.8-3.9-11.2-6.6V49.8h11.2V91.7z M78.1,85.1c-3.3,2.7-7.1,4.9-11.2,6.6V65.4h11.2V85.1z"/></g><g><g><g><path d="M50,95c-1.9,0-3.8-0.1-5.6-0.3v0C46.2,94.9,48.1,95.1,50,95c1.9,0.1,3.8-0.1,5.6-0.3v0C53.8,94.9,51.9,95,50,95z"/></g></g></g><text x="0" y="115" fill="#000000" font-size="5px" font-weight="bold" font-family="'Helvetica Neue', Helvetica, Arial-Unicode, Arial, Sans-serif">Created by Hysen Drogu</text><text x="0" y="120" fill="#000000" font-size="5px" font-weight="bold" font-family="'Helvetica Neue', Helvetica, Arial-Unicode, Arial, Sans-serif">from the Noun Project</text></svg>